<mxfile host="app.diagrams.net" modified="2022-03-13T11:06:42.991Z" agent="5.0 (Windows)" etag="5QvKXhQkt_Xvd-gFvhIx" version="17.1.2" type="github">
  <diagram id="C5RBs43oDa-KdzZeNtuy" name="Page-1">
    <mxGraphModel dx="1422" dy="764" grid="1" gridSize="10" guides="1" tooltips="1" connect="1" arrows="1" fold="1" page="1" pageScale="1" pageWidth="827" pageHeight="1169" math="0" shadow="0">
      <root>
        <mxCell id="WIyWlLk6GJQsqaUBKTNV-0" />
        <mxCell id="WIyWlLk6GJQsqaUBKTNV-1" parent="WIyWlLk6GJQsqaUBKTNV-0" />
        <mxCell id="yP8-PEbHTTU77Yfx1eNg-4" value="" style="edgeStyle=orthogonalEdgeStyle;rounded=0;orthogonalLoop=1;jettySize=auto;html=1;" edge="1" parent="WIyWlLk6GJQsqaUBKTNV-1" source="yP8-PEbHTTU77Yfx1eNg-0" target="yP8-PEbHTTU77Yfx1eNg-3">
          <mxGeometry relative="1" as="geometry" />
        </mxCell>
        <mxCell id="yP8-PEbHTTU77Yfx1eNg-0" value="START" style="rounded=1;whiteSpace=wrap;html=1;" vertex="1" parent="WIyWlLk6GJQsqaUBKTNV-1">
          <mxGeometry x="340" y="60" width="120" height="60" as="geometry" />
        </mxCell>
        <mxCell id="yP8-PEbHTTU77Yfx1eNg-6" value="" style="edgeStyle=orthogonalEdgeStyle;rounded=0;orthogonalLoop=1;jettySize=auto;html=1;" edge="1" parent="WIyWlLk6GJQsqaUBKTNV-1" source="yP8-PEbHTTU77Yfx1eNg-3" target="yP8-PEbHTTU77Yfx1eNg-5">
          <mxGeometry relative="1" as="geometry" />
        </mxCell>
        <mxCell id="yP8-PEbHTTU77Yfx1eNg-3" value="INPUT name" style="shape=parallelogram;perimeter=parallelogramPerimeter;whiteSpace=wrap;html=1;fixedSize=1;" vertex="1" parent="WIyWlLk6GJQsqaUBKTNV-1">
          <mxGeometry x="340" y="160" width="120" height="60" as="geometry" />
        </mxCell>
        <mxCell id="yP8-PEbHTTU77Yfx1eNg-9" value="" style="edgeStyle=orthogonalEdgeStyle;rounded=0;orthogonalLoop=1;jettySize=auto;html=1;" edge="1" parent="WIyWlLk6GJQsqaUBKTNV-1" source="yP8-PEbHTTU77Yfx1eNg-5" target="yP8-PEbHTTU77Yfx1eNg-7">
          <mxGeometry relative="1" as="geometry" />
        </mxCell>
        <mxCell id="yP8-PEbHTTU77Yfx1eNg-5" value="n = name Char 100" style="whiteSpace=wrap;html=1;" vertex="1" parent="WIyWlLk6GJQsqaUBKTNV-1">
          <mxGeometry x="340" y="260" width="120" height="60" as="geometry" />
        </mxCell>
        <mxCell id="yP8-PEbHTTU77Yfx1eNg-11" value="" style="edgeStyle=orthogonalEdgeStyle;rounded=0;orthogonalLoop=1;jettySize=auto;html=1;" edge="1" parent="WIyWlLk6GJQsqaUBKTNV-1" source="yP8-PEbHTTU77Yfx1eNg-7" target="yP8-PEbHTTU77Yfx1eNg-10">
          <mxGeometry relative="1" as="geometry" />
        </mxCell>
        <mxCell id="yP8-PEbHTTU77Yfx1eNg-7" value="DISPLAY &quot;Welcome to Aptech T2203M&quot;" style="shape=parallelogram;perimeter=parallelogramPerimeter;whiteSpace=wrap;html=1;fixedSize=1;" vertex="1" parent="WIyWlLk6GJQsqaUBKTNV-1">
          <mxGeometry x="270" y="360" width="260" height="60" as="geometry" />
        </mxCell>
        <mxCell id="yP8-PEbHTTU77Yfx1eNg-10" value="END" style="rounded=1;whiteSpace=wrap;html=1;" vertex="1" parent="WIyWlLk6GJQsqaUBKTNV-1">
          <mxGeometry x="340" y="460" width="120" height="60" as="geometry" />
        </mxCell>
      </root>
    </mxGraphModel>
  </diagram>
</mxfile>
